# xmcd
#
# Track frame offsets: 
#        150
#        21125
#        41509
#        61448
#        82423
#        102807
#
# Disc length: 1634 seconds
#
# Revision: 2
# Processed by: cddbd v1.5.2PL0 Copyright (c) Steve Scherf et al.
# Submitted via: ExactAudioCopyFreeDBPlugin 1.0
#
DISCID=49066006
DTITLE=halca - キミの隣
DYEAR=2018
DGENRE=Anime
TTITLE0=キミの隣
TTITLE1=サカナイトデイズ
TTITLE2=明日もまた
TTITLE3=キミの隣 -instrumental-
TTITLE4=サカナイトデイズ -instrumental-
TTITLE5=明日もまた -instrumental-
EXTD=
EXTT0=
EXTT1=
EXTT2=
EXTT3=
EXTT4=
EXTT5=
PLAYORDER=
